<svg width="21" height="22" viewBox="0 0 21 22" fill="none" xmlns="http://www.w3.org/2000/svg">
<path d="M10.0833 0C5.86483 0 1.47705 0.950684 1.47705 0.950684L1.47347 0.954264C1.05827 1.03738 0.684646 1.26165 0.416049 1.589C0.147452 1.91634 0.000446295 2.32657 0 2.75V8.25C0 17.7815 9.18636 21.7655 9.18636 21.7655C9.46032 21.9192 9.76919 22 10.0833 22C10.3963 21.9993 10.7038 21.9186 10.9767 21.7655H10.9803C10.9803 21.7655 20.1667 17.7815 20.1667 8.25V2.75C20.1669 2.32545 20.0197 1.91398 19.7504 1.58583C19.481 1.25768 19.1061 1.03319 18.6896 0.950684C18.6896 0.950684 14.3018 0 10.0833 0ZM15.5833 5.5C15.8178 5.5 16.0522 5.58935 16.2314 5.76855C16.5899 6.12697 16.5899 6.70636 16.2314 7.06478L9.30094 13.9953C9.12861 14.1676 8.89575 14.2638 8.65283 14.2638C8.40991 14.2638 8.17614 14.1676 8.00472 13.9953L4.83936 10.8299C4.48094 10.4715 4.48094 9.89211 4.83936 9.53369C5.19777 9.17527 5.77716 9.17527 6.13558 9.53369L8.65283 12.0509L14.9352 5.76855C15.1144 5.58935 15.3489 5.5 15.5833 5.5Z" fill="#06D6A0"/>
</svg>
