<svg width="21" height="22" viewBox="0 0 21 22" fill="none" xmlns="http://www.w3.org/2000/svg">
<path fill-rule="evenodd" clip-rule="evenodd" d="M1.47705 0.950684C1.47705 0.950684 5.86483 0 10.0833 0C14.3018 0 18.6896 0.950684 18.6896 0.950684C19.1061 1.03319 19.481 1.25768 19.7504 1.58583C20.0197 1.91398 20.1669 2.32545 20.1667 2.75V8.25C20.1667 17.7815 10.9803 21.7655 10.9803 21.7655H10.9767C10.7038 21.9186 10.3963 21.9993 10.0833 22C9.76919 22 9.46032 21.9192 9.18636 21.7655C9.18636 21.7655 0 17.7815 0 8.25V2.75C0.000446296 2.32657 0.147452 1.91634 0.416049 1.589C0.684646 1.26165 1.05827 1.03738 1.47347 0.954264L1.47705 0.950684ZM6.22796 5.96803C6.38417 5.86263 6.56825 5.8062 6.75667 5.80597C6.88346 5.80585 7.00899 5.83119 7.12582 5.88049C7.24264 5.92979 7.3484 6.00204 7.43681 6.09296L10.0833 8.74074L12.7299 6.09296C12.9015 5.91624 13.1351 5.81331 13.3813 5.80597C13.5722 5.80034 13.7603 5.85253 13.921 5.9557C14.0817 6.05887 14.2075 6.20821 14.282 6.38415C14.3564 6.56009 14.3759 6.75441 14.3381 6.94167C14.3002 7.12892 14.2067 7.30036 14.0698 7.43352L11.4232 10.0813L14.0698 12.7291C14.1607 12.8164 14.2333 12.9211 14.2833 13.0368C14.3334 13.1526 14.3598 13.2772 14.3611 13.4034C14.3623 13.5295 14.3385 13.6546 14.2908 13.7714C14.2432 13.8881 14.1727 13.9942 14.0835 14.0834C13.9944 14.1726 13.8884 14.2431 13.7716 14.2908C13.6549 14.3385 13.5299 14.3623 13.4038 14.3611C13.2777 14.3598 13.1532 14.3333 13.0375 14.2833C12.9217 14.2333 12.8172 14.1606 12.7299 14.0696L10.0833 11.4219L7.43681 14.0696C7.34949 14.1606 7.24491 14.2333 7.12919 14.2833C7.01346 14.3333 6.88892 14.3598 6.76286 14.3611C6.63679 14.3623 6.51174 14.3384 6.39502 14.2908C6.2783 14.2431 6.17227 14.1726 6.08312 14.0834C5.99397 13.9942 5.92351 13.8881 5.87586 13.7714C5.82821 13.6546 5.80432 13.5295 5.8056 13.4033C5.80689 13.2772 5.83331 13.1526 5.88333 13.0368C5.93334 12.9211 6.00595 12.8164 6.09689 12.7291L8.74341 10.0813L6.09689 7.43352C5.96186 7.30204 5.86907 7.13327 5.83038 6.94878C5.79169 6.76428 5.80884 6.57243 5.87966 6.39774C5.95048 6.22305 6.07174 6.07344 6.22796 5.96803Z" fill="#ED4747"/>
</svg>
