<svg width="19" height="22" viewBox="0 0 19 22" fill="none" xmlns="http://www.w3.org/2000/svg">
<path d="M8.59034 0.000360712C8.52958 0.00212993 8.46919 0.0104408 8.41021 0.0251495L1.6412 1.7174C1.45801 1.76314 1.29538 1.86884 1.17919 2.01767C1.063 2.1665 0.999925 2.34992 1 2.53874V19.4612C0.999925 19.6501 1.063 19.8335 1.17919 19.9823C1.29538 20.1311 1.45801 20.2368 1.6412 20.2826L8.41021 21.9748C8.53497 22.006 8.66518 22.0082 8.79096 21.9815C8.91674 21.9548 9.03477 21.8997 9.13609 21.8206C9.23741 21.7414 9.31935 21.6402 9.3757 21.5246C9.43204 21.409 9.4613 21.2821 9.46125 21.1535H17.0764C17.5434 21.1535 17.9225 20.7744 17.9225 20.3074V1.69261C17.9225 1.22555 17.5434 0.846486 17.0764 0.846486H9.46125C9.46129 0.733258 9.4386 0.621173 9.39454 0.516872C9.35047 0.412571 9.28592 0.318174 9.20471 0.239274C9.12349 0.160373 9.02727 0.0985736 8.92174 0.0575354C8.81621 0.0164972 8.70352 -0.0029449 8.59034 0.000360712ZM7.769 1.93058V20.0694L2.69225 18.8002V3.19977L7.769 1.93058ZM6.07675 10.1539C5.85235 10.1539 5.63713 10.243 5.47845 10.4017C5.31977 10.5604 5.23063 10.7756 5.23063 11C5.23063 11.2244 5.31977 11.4396 5.47845 11.5983C5.63713 11.757 5.85235 11.8461 6.07675 11.8461C6.30116 11.8461 6.51637 11.757 6.67505 11.5983C6.83373 11.4396 6.92288 11.2244 6.92288 11C6.92288 10.7756 6.83373 10.5604 6.67505 10.4017C6.51637 10.243 6.30116 10.1539 6.07675 10.1539Z" fill="#ED4747"/>
</svg>
