<svg width="22" height="22" viewBox="0 0 22 22" fill="none" xmlns="http://www.w3.org/2000/svg">
<path d="M6.729 0.00464984C5.36145 0.0541144 4.17303 0.500078 3.29725 1.37586C3.00813 1.66528 2.76716 1.99557 2.56681 2.35662C1.02001 4.34053 0 6.83439 0 9.44244C0 12.6244 1.17888 15.8965 3.64846 18.3609C4.00871 18.7204 4.39063 19.0442 4.78241 19.3491C4.78241 20.8106 6.00355 22 7.50427 22C7.6197 22 8.05872 21.9559 9.48075 21.6114C10.4947 21.8607 11.5267 21.9968 12.552 21.9981C15.1933 22.0025 17.7181 20.9648 19.7181 19.394C20.0429 19.205 20.3451 18.9817 20.6148 18.7121C21.5196 17.8053 21.9991 16.5236 21.9991 15.0095C21.9991 11.9745 20.0647 8.15548 16.9533 5.03926C13.6147 1.70072 9.7376 -0.104172 6.729 0.00464984ZM2.21747 7.25673C2.86714 9.81789 4.55463 12.6412 6.95878 15.0468C9.44392 17.5342 12.2265 19.1601 14.7283 19.7881C14.0124 19.9745 13.2822 20.0864 12.5538 20.0852C9.8486 20.0816 7.07932 19.0823 4.99911 17.0065C2.91392 14.9257 1.91296 12.1524 1.91296 9.44244C1.91296 8.71014 2.02738 7.97605 2.21747 7.25673Z" fill="#ADB5BD"/>
</svg>
