<svg width="22" height="22" viewBox="0 0 22 22" fill="none" xmlns="http://www.w3.org/2000/svg">
<path d="M10.5217 0C10.1917 0 9.88636 0.0899579 9.61566 0.237262L0.962126 5.04603C0.390126 5.37603 0 5.98783 0 6.69565V20.087C0 21.1439 0.856087 22 1.91304 22V6.69565H19.1304V22C20.1874 22 21.0435 21.1439 21.0435 20.087V6.69565C21.0435 5.98783 20.6534 5.37603 20.0814 5.04603L11.4278 0.237262C11.1571 0.0899579 10.8517 0 10.5217 0ZM3.82609 8.6087V22H9.56522C9.56522 21.472 9.99374 21.0435 10.5217 21.0435C11.0497 21.0435 11.4783 21.472 11.4783 22H17.2174V8.6087H3.82609Z" fill="#06D6A0"/>
</svg>
