<svg width="22" height="22" viewBox="0 0 22 22" fill="none" xmlns="http://www.w3.org/2000/svg">
<path d="M3.75583 9.79497e-05C3.64504 -0.0013928 3.53507 0.0193748 3.43242 0.0611737C3.32978 0.102973 3.23653 0.164955 3.1582 0.24346C3.00273 0.399236 2.91539 0.610495 2.91539 0.830773C2.91539 1.05105 3.00273 1.26231 3.1582 1.41809C3.31371 1.57383 3.5246 1.66132 3.74449 1.66132C3.96439 1.66132 4.17528 1.57383 4.33079 1.41809C4.48626 1.26231 4.5736 1.05105 4.5736 0.830773C4.5736 0.610495 4.48626 0.399236 4.33079 0.24346C4.17809 0.0904225 3.97181 0.00310986 3.75583 9.79497e-05ZM17.8285 9.79497e-05C17.7174 -0.00161071 17.6071 0.0190509 17.5042 0.060856C17.4012 0.102661 17.3077 0.164758 17.2292 0.24346C17.0737 0.399236 16.9864 0.610495 16.9864 0.830773C16.9864 1.05105 17.0737 1.26231 17.2292 1.41809C17.3847 1.57383 17.5956 1.66132 17.8155 1.66132C18.0354 1.66132 18.2463 1.57383 18.4018 1.41809C18.5573 1.26231 18.6446 1.05105 18.6446 0.830773C18.6446 0.610495 18.5573 0.399236 18.4018 0.24346C18.2495 0.0908107 18.0439 0.00353003 17.8285 9.79497e-05ZM10.78 0.402456C6.65789 0.402456 3.31692 3.74924 3.31692 7.87853C3.31692 12.0319 6.63385 13.6933 8.29231 17.016H13.2677C14.9262 13.6933 18.2431 12.0319 18.2431 7.87853C18.2431 3.74924 14.9021 0.402456 10.78 0.402456ZM10.78 2.89448V7.04785H14.0969L10.78 12.8626V8.7092H7.46308L10.78 2.89448ZM0.829231 7.04785C0.609305 7.04785 0.398387 7.13537 0.242876 7.29115C0.0873651 7.44694 0 7.65822 0 7.87853C0 8.09884 0.0873651 8.31012 0.242876 8.46591C0.398387 8.62169 0.609305 8.7092 0.829231 8.7092C1.04916 8.7092 1.26007 8.62169 1.41559 8.46591C1.5711 8.31012 1.65846 8.09884 1.65846 7.87853C1.65846 7.65822 1.5711 7.44694 1.41559 7.29115C1.26007 7.13537 1.04916 7.04785 0.829231 7.04785ZM20.7308 7.04785C20.5108 7.04785 20.2999 7.13537 20.1444 7.29115C19.9889 7.44694 19.9015 7.65822 19.9015 7.87853C19.9015 8.09884 19.9889 8.31012 20.1444 8.46591C20.2999 8.62169 20.5108 8.7092 20.7308 8.7092C20.9507 8.7092 21.1616 8.62169 21.3171 8.46591C21.4726 8.31012 21.56 8.09884 21.56 7.87853C21.56 7.65822 21.4726 7.44694 21.3171 7.29115C21.1616 7.13537 20.9507 7.04785 20.7308 7.04785ZM3.75583 14.0956C3.64477 14.0939 3.53449 14.1146 3.43155 14.1564C3.32861 14.1982 3.23511 14.2603 3.15658 14.339C3.00111 14.4947 2.91377 14.706 2.91377 14.9263C2.91377 15.1466 3.00111 15.3578 3.15658 15.5136C3.23361 15.591 3.32512 15.6523 3.42586 15.6942C3.52661 15.7361 3.63461 15.7576 3.74369 15.7576C3.85276 15.7576 3.96076 15.7361 4.06151 15.6942C4.16225 15.6523 4.25376 15.591 4.33079 15.5136C4.48626 15.3578 4.5736 15.1466 4.5736 14.9263C4.5736 14.706 4.48626 14.4947 4.33079 14.339C4.17809 14.1859 3.97181 14.0986 3.75583 14.0956ZM17.8268 14.0972C17.7162 14.0955 17.6063 14.116 17.5036 14.1576C17.401 14.1991 17.3077 14.2608 17.2292 14.339C17.152 14.4161 17.0907 14.5078 17.0489 14.6087C17.0071 14.7096 16.9856 14.8178 16.9856 14.9271C16.9856 15.0364 17.0071 15.1446 17.0489 15.2455C17.0907 15.3464 17.152 15.4381 17.2292 15.5152C17.3847 15.671 17.5956 15.7585 17.8155 15.7585C18.0354 15.7585 18.2463 15.671 18.4018 15.5152C18.479 15.4381 18.5403 15.3464 18.5821 15.2455C18.6239 15.1446 18.6454 15.0364 18.6454 14.9271C18.6454 14.8178 18.6239 14.7096 18.5821 14.6087C18.5403 14.5078 18.479 14.4161 18.4018 14.339C18.2488 14.1865 18.0426 14.0998 17.8268 14.0972ZM8.29231 18.6773V19.508C8.29231 20.4259 9.03447 21.1693 9.95077 21.1693C9.95077 21.3896 10.0381 21.6009 10.1936 21.7567C10.3492 21.9125 10.5601 22 10.78 22C10.9999 22 11.2108 21.9125 11.3664 21.7567C11.5219 21.6009 11.6092 21.3896 11.6092 21.1693C12.5255 21.1693 13.2677 20.4259 13.2677 19.508V18.6773H8.29231Z" fill="#FFD166"/>
</svg>
