<svg width="16" height="22" viewBox="0 0 16 22" fill="none" xmlns="http://www.w3.org/2000/svg">
<path d="M7.92 0C5.01457 0 2.64 2.37457 2.64 5.28V8.18813C1.02321 9.6381 0 11.737 0 14.08C0 18.4545 3.54552 22 7.92 22C12.2945 22 15.84 18.4545 15.84 14.08C15.84 11.737 14.8168 9.6381 13.2 8.18813V5.28C13.2 2.48539 10.9859 0.235248 8.23281 0.0635938C8.13329 0.0235052 8.02728 0.00195286 7.92 0ZM7.92 1.76C9.87393 1.76 11.44 3.32607 11.44 5.28V6.99188C10.3788 6.46391 9.18587 6.16 7.92 6.16C6.65413 6.16 5.46121 6.46391 4.4 6.99188V5.28C4.4 3.32607 5.96607 1.76 7.92 1.76ZM7.92 12.32C8.8924 12.32 9.68 13.1076 9.68 14.08C9.68 14.7294 9.3236 15.2906 8.8 15.5959V16.72C8.8 17.2058 8.40576 17.6 7.92 17.6C7.43424 17.6 7.04 17.2058 7.04 16.72V15.5959C6.5164 15.2915 6.16 14.7303 6.16 14.08C6.16 13.1076 6.9476 12.32 7.92 12.32Z" fill="#06D6A0"/>
</svg>
