<svg width="16" height="22" viewBox="0 0 16 22" fill="none" xmlns="http://www.w3.org/2000/svg">
<path d="M7.92 0C7.81157 0.00153257 7.70435 0.0230926 7.60375 0.0635938C4.85229 0.23696 2.64 2.48656 2.64 5.28V8.18813C1.02321 9.6381 0 11.737 0 14.08C0 18.4545 3.54552 22 7.92 22C12.2945 22 15.84 18.4545 15.84 14.08C15.84 9.70552 12.2945 6.16 7.92 6.16C6.65413 6.16 5.46121 6.46391 4.4 6.99188V5.28C4.4 3.32607 5.96607 1.76 7.92 1.76C9.41622 1.76 10.6822 2.68562 11.1959 3.98922C11.2382 4.0968 11.3013 4.19499 11.3816 4.27819C11.4618 4.36139 11.5577 4.42797 11.6637 4.47411C11.7697 4.52026 11.8837 4.54508 11.9993 4.54714C12.1149 4.54921 12.2297 4.52849 12.3373 4.48616C12.4448 4.44383 12.543 4.38073 12.6262 4.30045C12.7094 4.22018 12.7759 4.1243 12.822 4.0183C12.8682 3.9123 12.8929 3.79825 12.895 3.68267C12.897 3.56709 12.8763 3.45225 12.8339 3.34469C12.0895 1.45577 10.2749 0.133241 8.15547 0.0360937C8.07898 0.0134464 7.99976 0.00130392 7.92 0ZM7.92 12.32C8.8924 12.32 9.68 13.1076 9.68 14.08C9.68 14.7294 9.3236 15.2906 8.8 15.5959V16.72C8.8 17.2058 8.40576 17.6 7.92 17.6C7.43424 17.6 7.04 17.2058 7.04 16.72V15.5959C6.5164 15.2915 6.16 14.7303 6.16 14.08C6.16 13.1076 6.9476 12.32 7.92 12.32Z" fill="#ED4747"/>
</svg>
