<svg width="22" height="22" viewBox="0 0 22 22" fill="none" xmlns="http://www.w3.org/2000/svg">
<path d="M11 0C10.065 0 9.30769 0.757308 9.30769 1.69231V1.9402C6.86147 2.66862 5.07692 4.93251 5.07692 7.61538V9.94892C5.07692 12.2479 4.16392 14.4515 2.53846 16.0769C2.31405 16.0769 2.09883 16.1661 1.94014 16.3248C1.78146 16.4834 1.69231 16.6987 1.69231 16.9231C1.69231 17.1475 1.78146 17.3627 1.94014 17.5214C2.09883 17.6801 2.31405 17.7692 2.53846 17.7692H19.4615C19.686 17.7692 19.9012 17.6801 20.0599 17.5214C20.2185 17.3627 20.3077 17.1475 20.3077 16.9231C20.3077 16.6987 20.2185 16.4834 20.0599 16.3248C19.9012 16.1661 19.686 16.0769 19.4615 16.0769C17.8361 14.4515 16.9231 12.2479 16.9231 9.94892V7.61538C16.9231 4.93251 15.1385 2.66862 12.6923 1.9402V1.69231C12.6923 0.757308 11.935 0 11 0ZM1.6543 4.22085C1.50264 4.22864 1.35587 4.27709 1.22938 4.36112C1.10289 4.44515 1.00135 4.56168 0.935397 4.69847C0.935397 4.69847 0 6.48718 0 8.46154C0 10.4359 0.935397 12.2246 0.935397 12.2246C1.03581 12.4253 1.21181 12.5779 1.42471 12.6488C1.6376 12.7197 1.86995 12.7032 2.07066 12.6029C2.27137 12.5025 2.42401 12.3265 2.495 12.1137C2.56599 11.9008 2.54952 11.6684 2.44922 11.4677C2.44922 11.4677 1.69231 9.8718 1.69231 8.46154C1.69231 7.05128 2.44922 5.45538 2.44922 5.45538C2.51778 5.3231 2.5502 5.17507 2.54321 5.02625C2.53621 4.87743 2.49006 4.73309 2.4094 4.60783C2.32874 4.48256 2.21644 4.38082 2.08385 4.31287C1.95126 4.24492 1.80308 4.21318 1.6543 4.22085ZM20.3209 4.22085C20.1742 4.21767 20.0292 4.2527 19.9001 4.32251C19.771 4.39231 19.6623 4.49448 19.5846 4.61899C19.5069 4.74351 19.463 4.88608 19.457 5.03271C19.4511 5.17935 19.4834 5.325 19.5508 5.45538C19.5508 5.45538 20.3077 7.05128 20.3077 8.46154C20.3077 9.8718 19.5508 11.4677 19.5508 11.4677C19.5011 11.5671 19.4714 11.6753 19.4635 11.7862C19.4556 11.897 19.4696 12.0084 19.5048 12.1138C19.5399 12.2193 19.5955 12.3168 19.6683 12.4007C19.7411 12.4847 19.8298 12.5535 19.9292 12.6032C20.0286 12.6529 20.1368 12.6825 20.2477 12.6904C20.3585 12.6983 20.4699 12.6842 20.5753 12.6491C20.6807 12.6139 20.7782 12.5583 20.8622 12.4855C20.9461 12.4127 21.0149 12.324 21.0646 12.2246C21.0646 12.2246 22 10.4359 22 8.46154C22 6.48718 21.0646 4.69847 21.0646 4.69847C20.9967 4.55805 20.8913 4.43914 20.7601 4.35485C20.6288 4.27057 20.4769 4.2242 20.3209 4.22085ZM8.46154 19.4615C8.46154 20.8636 9.59792 22 11 22C12.4021 22 13.5385 20.8636 13.5385 19.4615H8.46154Z" fill="#06D6A0"/>
</svg>
