<svg width="22" height="22" viewBox="0 0 22 22" fill="none" xmlns="http://www.w3.org/2000/svg">
<line x1="20.3536" y1="1.35355" x2="0.353554" y2="21.3536" stroke="#ED4747"/>
<mask id="path-2-inside-1_150_2379" fill="white">
<path fill-rule="evenodd" clip-rule="evenodd" d="M9.30771 1.69231C9.30771 0.757308 10.065 0 11 0C11.935 0 12.6923 0.757308 12.6923 1.69231V1.9402C14.4504 2.46371 15.8667 3.78032 16.5244 5.47557L4.23077 17.7692H2.53848C2.31406 17.7692 2.09884 17.6801 1.94015 17.5214C1.78147 17.3627 1.69232 17.1475 1.69232 16.9231C1.69232 16.6987 1.78147 16.4834 1.94015 16.3248C2.09884 16.1661 2.31406 16.0769 2.53848 16.0769C4.16394 14.4515 5.07694 12.2479 5.07694 9.94892V7.61538C5.07694 4.93251 6.86148 2.66862 9.30771 1.9402V1.69231ZM5.64498 17.7692H19.4616C19.686 17.7692 19.9012 17.6801 20.0599 17.5214C20.2186 17.3627 20.3077 17.1475 20.3077 16.9231C20.3077 16.6987 20.2186 16.4834 20.0599 16.3248C19.9012 16.1661 19.686 16.0769 19.4616 16.0769C17.8361 14.4515 16.9231 12.2479 16.9231 9.94892V7.61538C16.9231 7.26255 16.8922 6.91697 16.833 6.58116L5.64498 17.7692ZM11 22C9.59794 22 8.46155 20.8636 8.46155 19.4615H13.5385C13.5385 20.8636 12.4021 22 11 22Z"/>
</mask>
<path fill-rule="evenodd" clip-rule="evenodd" d="M9.30771 1.69231C9.30771 0.757308 10.065 0 11 0C11.935 0 12.6923 0.757308 12.6923 1.69231V1.9402C14.4504 2.46371 15.8667 3.78032 16.5244 5.47557L4.23077 17.7692H2.53848C2.31406 17.7692 2.09884 17.6801 1.94015 17.5214C1.78147 17.3627 1.69232 17.1475 1.69232 16.9231C1.69232 16.6987 1.78147 16.4834 1.94015 16.3248C2.09884 16.1661 2.31406 16.0769 2.53848 16.0769C4.16394 14.4515 5.07694 12.2479 5.07694 9.94892V7.61538C5.07694 4.93251 6.86148 2.66862 9.30771 1.9402V1.69231ZM5.64498 17.7692H19.4616C19.686 17.7692 19.9012 17.6801 20.0599 17.5214C20.2186 17.3627 20.3077 17.1475 20.3077 16.9231C20.3077 16.6987 20.2186 16.4834 20.0599 16.3248C19.9012 16.1661 19.686 16.0769 19.4616 16.0769C17.8361 14.4515 16.9231 12.2479 16.9231 9.94892V7.61538C16.9231 7.26255 16.8922 6.91697 16.833 6.58116L5.64498 17.7692ZM11 22C9.59794 22 8.46155 20.8636 8.46155 19.4615H13.5385C13.5385 20.8636 12.4021 22 11 22Z" fill="#ED4747"/>
<path d="M12.6923 1.9402H9.69232V4.17706L11.8362 4.81544L12.6923 1.9402ZM16.5244 5.47557L18.6458 7.59689L20.0288 6.21388L19.3213 4.39045L16.5244 5.47557ZM4.23077 17.7692V20.7692H5.47341L6.35209 19.8906L4.23077 17.7692ZM1.94015 17.5214L4.06147 15.4001V15.4001L1.94015 17.5214ZM1.94015 16.3248L4.06147 18.4461H4.06147L1.94015 16.3248ZM2.53848 16.0769V19.0769H3.78112L4.6598 18.1982L2.53848 16.0769ZM9.30771 1.9402L10.1639 4.81544L12.3077 4.17706V1.9402H9.30771ZM5.64498 17.7692L3.52366 15.6479L-1.59766 20.7692H5.64498V17.7692ZM19.4616 16.0769L17.3402 18.1982L18.2189 19.0769H19.4616V16.0769ZM16.833 6.58116L19.7875 6.06051L18.7872 0.384333L14.7117 4.45984L16.833 6.58116ZM8.46155 19.4615V16.4615H5.46155V19.4615H8.46155ZM13.5385 19.4615H16.5385V16.4615H13.5385V19.4615ZM11 -3C8.40816 -3 6.30771 -0.899548 6.30771 1.69231H12.3077C12.3077 2.41416 11.7219 3 11 3V-3ZM15.6923 1.69231C15.6923 -0.899543 13.5919 -3 11 -3V3C10.2782 3 9.69232 2.41416 9.69232 1.69231H15.6923ZM15.6923 1.9402V1.69231H9.69232V1.9402H15.6923ZM19.3213 4.39045C18.3299 1.83523 16.2001 -0.145443 13.5485 -0.93503L11.8362 4.81544C12.7007 5.07287 13.4035 5.72542 13.7276 6.56069L19.3213 4.39045ZM6.35209 19.8906L18.6458 7.59689L14.4031 3.35425L2.10945 15.6479L6.35209 19.8906ZM2.53848 20.7692H4.23077V14.7692H2.53848V20.7692ZM-0.18116 19.6427C0.540123 20.364 1.5184 20.7692 2.53848 20.7692V14.7692C3.10972 14.7692 3.65756 14.9962 4.06147 15.4001L-0.18116 19.6427ZM-1.30768 16.9231C-1.30768 17.9431 -0.902462 18.9214 -0.18116 19.6427L4.06147 15.4001C4.4654 15.804 4.69232 16.3518 4.69232 16.9231H-1.30768ZM-0.18116 14.2034C-0.902462 14.9247 -1.30768 15.903 -1.30768 16.9231H4.69232C4.69232 17.4943 4.4654 18.0422 4.06147 18.4461L-0.18116 14.2034ZM2.53848 13.0769C1.51842 13.0769 0.540135 13.4821 -0.18116 14.2034L4.06147 18.4461C3.65754 18.85 3.10971 19.0769 2.53848 19.0769V13.0769ZM2.07694 9.94892C2.07694 11.4521 1.48014 12.8926 0.417155 13.9556L4.6598 18.1982C6.84773 16.0103 8.07694 13.0438 8.07694 9.94892H2.07694ZM2.07694 7.61538V9.94892H8.07694V7.61538H2.07694ZM8.45154 -0.93503C4.77047 0.161094 2.07694 3.56715 2.07694 7.61538H8.07694C8.07694 6.29787 8.9525 5.17616 10.1639 4.81544L8.45154 -0.93503ZM6.30771 1.69231V1.9402H12.3077V1.69231H6.30771ZM5.64498 20.7692H19.4616V14.7692H5.64498V20.7692ZM19.4616 20.7692C20.4816 20.7692 21.4599 20.364 22.1812 19.6427L17.9386 15.4001C18.3425 14.9962 18.8903 14.7692 19.4616 14.7692V20.7692ZM22.1812 19.6427C22.9025 18.9214 23.3077 17.9431 23.3077 16.9231H17.3077C17.3077 16.3518 17.5346 15.804 17.9386 15.4001L22.1812 19.6427ZM23.3077 16.9231C23.3077 15.903 22.9025 14.9247 22.1812 14.2034L17.9386 18.4461C17.5346 18.0422 17.3077 17.4943 17.3077 16.9231H23.3077ZM22.1812 14.2034C21.4599 13.4821 20.4816 13.0769 19.4616 13.0769V19.0769C18.8903 19.0769 18.3425 18.85 17.9386 18.4461L22.1812 14.2034ZM21.5829 13.9556C20.5199 12.8926 19.9231 11.4521 19.9231 9.94892H13.9231C13.9231 13.0438 15.1523 16.0103 17.3402 18.1982L21.5829 13.9556ZM19.9231 9.94892V7.61538H13.9231V9.94892H19.9231ZM19.9231 7.61538C19.9231 7.08726 19.8769 6.56748 19.7875 6.06051L13.8786 7.10182C13.9076 7.26645 13.9231 7.43784 13.9231 7.61538H19.9231ZM14.7117 4.45984L3.52366 15.6479L7.7663 19.8906L18.9544 8.70249L14.7117 4.45984ZM5.46155 19.4615C5.46155 22.5205 7.94108 25 11 25V19C11.2548 19 11.4616 19.2068 11.4616 19.4615H5.46155ZM13.5385 16.4615H8.46155V22.4615H13.5385V16.4615ZM11 25C14.0589 25 16.5385 22.5205 16.5385 19.4615H10.5385C10.5385 19.2068 10.7452 19 11 19V25Z" fill="#ED4747" mask="url(#path-2-inside-1_150_2379)"/>
</svg>
