<svg width="22" height="22" viewBox="0 0 22 22" fill="none" xmlns="http://www.w3.org/2000/svg">
<path d="M11 0C10.7694 0.00071989 10.5476 0.088299 10.3787 0.24528C10.3721 0.25056 10.3655 0.255931 10.359 0.261393L0.359863 8.43978C0.348314 8.44846 0.336972 8.45742 0.325846 8.46663L0.291829 8.49528V8.49707C0.199891 8.58272 0.126543 8.68636 0.0763403 8.80155C0.0261379 8.91673 0.000153152 9.04101 0 9.16667C0 9.40978 0.0965771 9.64294 0.268485 9.81485C0.440394 9.98676 0.673551 10.0833 0.916667 10.0833H1.83333V20.1667C1.83333 21.1796 2.65375 22 3.66667 22H18.3333C19.3463 22 20.1667 21.1796 20.1667 20.1667V10.0833H21.0833C21.3264 10.0833 21.5596 9.98676 21.7315 9.81485C21.9034 9.64294 22 9.40978 22 9.16667C21.9998 9.04101 21.9739 8.91673 21.9237 8.80155C21.8735 8.68636 21.8001 8.58272 21.7082 8.49707V8.49528L21.6938 8.48454C21.6737 8.46631 21.6528 8.44899 21.6312 8.43262L20.1667 7.23486L17.4167 4.98617L11.6338 0.256022L11.6213 0.24528C11.4524 0.088299 11.2306 0.00071989 11 0ZM11 4.58333C12.0129 4.58333 12.8333 5.40375 12.8333 6.41667C12.8333 7.42958 12.0129 8.25 11 8.25C9.98708 8.25 9.16667 7.42958 9.16667 6.41667C9.16667 5.40375 9.98708 4.58333 11 4.58333ZM10.0833 10.0833H11.9167C12.9277 10.0833 13.75 10.9056 13.75 11.9167V15.5833C13.75 16.0893 13.3393 16.5 12.8333 16.5V19.25C12.8333 19.756 12.4227 20.1667 11.9167 20.1667H10.0833C9.57733 20.1667 9.16667 19.756 9.16667 19.25V16.5C8.66067 16.5 8.25 16.0893 8.25 15.5833V11.9167C8.25 10.9056 9.07225 10.0833 10.0833 10.0833Z" fill="#59A5D8"/>
</svg>
