<svg width="19" height="22" viewBox="0 0 19 22" fill="none" xmlns="http://www.w3.org/2000/svg">
<path d="M1.83333 0C0.831359 0 0 0.831359 0 1.83333V20.1667C0 21.1686 0.831359 22 1.83333 22H16.5C17.502 22 18.3333 21.1686 18.3333 20.1667V1.83333C18.3333 0.831359 17.502 0 16.5 0H1.83333ZM1.83333 1.83333H16.5V20.1667H1.83333V1.83333ZM3.66667 3.66667V9.16667H8.25V3.66667H3.66667ZM10.0833 3.66667V9.16667H14.6667V3.66667H10.0833ZM3.66667 11V18.3333H8.25V11H3.66667ZM10.0833 11V18.3333H14.6667V11H10.0833Z" fill="#06D6A0"/>
</svg>
